<svg xmlns="http://www.w3.org/2000/svg" xmlns:xlink="http://www.w3.org/1999/xlink" width="500" zoomAndPan="magnify" viewBox="0 0 375 374.999991" height="500" preserveAspectRatio="xMidYMid meet" version="1.0"><defs><g/></defs><g fill="#4b5ae4" fill-opacity="1"><g transform="translate(9.665222, 226.478934)"><g><path d="M 91.398438 0 L 53.210938 0 L 53.210938 -45.378906 C 53.210938 -47.828125 52.597656 -49.667969 51.371094 -50.890625 C 50.148438 -52.117188 48.707031 -52.730469 47.058594 -52.730469 C 45.40625 -52.730469 43.96875 -52.144531 42.742188 -50.972656 C 41.519531 -49.800781 40.90625 -47.988281 40.90625 -45.539062 L 40.90625 0 L 1.597656 0 L 1.597656 -47.136719 C 1.597656 -55.550781 2.902344 -62.636719 5.511719 -68.390625 C 8.121094 -74.140625 11.636719 -78.773438 16.058594 -82.289062 C 20.480469 -85.804688 25.378906 -88.363281 30.757812 -89.960938 C 36.136719 -91.558594 41.597656 -92.355469 47.136719 -92.355469 C 51.609375 -92.355469 56.03125 -91.585938 60.398438 -90.039062 C 64.765625 -88.496094 68.761719 -85.914062 72.382812 -82.289062 C 75.472656 -85.699219 79.28125 -88.203125 83.808594 -89.800781 C 88.335938 -91.398438 92.78125 -92.25 97.152344 -92.355469 C 102.796875 -92.355469 108.335938 -91.53125 113.769531 -89.878906 C 119.203125 -88.230469 124.128906 -85.621094 128.546875 -82.050781 C 132.96875 -78.480469 136.511719 -73.820312 139.175781 -68.070312 C 141.835938 -62.316406 143.167969 -55.339844 143.167969 -47.136719 L 143.167969 0 L 103.863281 0 L 103.863281 -45.539062 C 103.863281 -47.988281 103.222656 -49.800781 101.945312 -50.972656 C 100.664062 -52.144531 99.226562 -52.730469 97.628906 -52.730469 C 96.03125 -52.730469 94.59375 -52.117188 93.316406 -50.890625 C 92.039062 -49.667969 91.398438 -47.828125 91.398438 -45.378906 Z M 91.398438 0 "/></g></g></g><g fill="#fff9f9" fill-opacity="1"><g transform="translate(119.104645, 196.778989)"><g><path d="M 35.480469 6.222656 C 30.15625 6.222656 25.125 5.214844 20.394531 3.199219 C 15.6875 1.195312 11.542969 -1.597656 7.964844 -5.175781 C 4.386719 -8.753906 1.597656 -12.894531 -0.40625 -17.601562 C -2.421875 -22.335938 -3.433594 -27.363281 -3.433594 -32.6875 C -3.433594 -38.09375 -2.421875 -43.148438 -0.402344 -47.847656 C 1.601562 -52.507812 4.390625 -56.628906 7.964844 -60.203125 C 11.542969 -63.78125 15.6875 -66.570312 20.394531 -68.578125 C 25.125 -70.59375 30.15625 -71.601562 35.480469 -71.601562 C 40.886719 -71.601562 45.941406 -70.589844 50.640625 -68.570312 C 55.300781 -66.566406 59.417969 -63.777344 62.996094 -60.203125 C 66.570312 -56.628906 69.359375 -52.507812 71.363281 -47.847656 C 73.382812 -43.148438 74.394531 -38.09375 74.394531 -32.6875 C 74.394531 -27.363281 73.382812 -22.335938 71.367188 -17.601562 C 69.363281 -12.894531 66.574219 -8.753906 62.996094 -5.175781 C 59.417969 -1.601562 55.300781 1.1875 50.640625 3.195312 C 45.941406 5.214844 40.886719 6.222656 35.480469 6.222656 Z M 35.480469 -2.5 C 39.691406 -2.5 43.59375 -3.273438 47.191406 -4.820312 C 50.828125 -6.386719 54.039062 -8.558594 56.824219 -11.34375 C 59.605469 -14.125 61.777344 -17.351562 63.339844 -21.019531 C 64.890625 -24.660156 65.667969 -28.550781 65.667969 -32.6875 C 65.667969 -36.898438 64.894531 -40.800781 63.347656 -44.402344 C 61.785156 -48.039062 59.609375 -51.246094 56.824219 -54.03125 C 54.039062 -56.816406 50.828125 -58.992188 47.191406 -60.554688 C 43.59375 -62.101562 39.691406 -62.875 35.480469 -62.875 C 31.34375 -62.875 27.453125 -62.101562 23.8125 -60.550781 C 20.144531 -58.984375 16.917969 -56.8125 14.136719 -54.03125 C 11.351562 -51.246094 9.175781 -48.039062 7.613281 -44.402344 C 6.066406 -40.800781 5.292969 -36.898438 5.292969 -32.6875 C 5.292969 -28.550781 6.070312 -24.660156 7.621094 -21.019531 C 9.183594 -17.351562 11.355469 -14.125 14.136719 -11.34375 C 16.917969 -8.5625 20.144531 -6.390625 23.8125 -4.828125 C 27.453125 -3.277344 31.34375 -2.5 35.480469 -2.5 Z M 35.480469 -34.257812 C 35.054688 -34.257812 34.6875 -34.101562 34.378906 -33.792969 C 34.066406 -33.480469 33.910156 -33.113281 33.910156 -32.6875 C 33.910156 -32.265625 34.066406 -31.898438 34.378906 -31.585938 C 34.6875 -31.273438 35.054688 -31.117188 35.480469 -31.117188 C 35.902344 -31.117188 36.273438 -31.273438 36.582031 -31.585938 C 36.894531 -31.898438 37.050781 -32.265625 37.050781 -32.6875 C 37.050781 -33.113281 36.894531 -33.480469 36.582031 -33.792969 C 36.273438 -34.101562 35.902344 -34.257812 35.480469 -34.257812 Z M 35.480469 -42.984375 C 38.3125 -42.984375 40.738281 -41.976562 42.753906 -39.960938 C 44.769531 -37.945312 45.777344 -35.523438 45.777344 -32.6875 C 45.777344 -29.855469 44.769531 -27.429688 42.753906 -25.414062 C 40.738281 -23.402344 38.3125 -22.394531 35.480469 -22.394531 C 32.648438 -22.394531 30.222656 -23.402344 28.207031 -25.414062 C 26.191406 -27.429688 25.183594 -29.855469 25.183594 -32.6875 C 25.183594 -35.523438 26.191406 -37.945312 28.207031 -39.960938 C 30.222656 -41.976562 32.648438 -42.984375 35.480469 -42.984375 Z M 35.480469 -42.984375 "/></g></g></g><g fill="#4b5ae4" fill-opacity="1"><g transform="translate(119.104645, 196.778989)"><g><path d="M 35.480469 1.859375 C 30.75 1.859375 26.289062 0.96875 22.101562 -0.8125 C 17.914062 -2.597656 14.230469 -5.078125 11.050781 -8.257812 C 7.871094 -11.4375 5.390625 -15.121094 3.605469 -19.3125 C 1.824219 -23.5 0.929688 -27.957031 0.929688 -32.6875 C 0.929688 -37.496094 1.824219 -41.976562 3.605469 -46.125 C 5.390625 -50.273438 7.871094 -53.9375 11.050781 -57.117188 C 14.230469 -60.296875 17.914062 -62.777344 22.101562 -64.5625 C 26.289062 -66.347656 30.75 -67.238281 35.480469 -67.238281 C 40.289062 -67.238281 44.765625 -66.347656 48.917969 -64.5625 C 53.066406 -62.777344 56.730469 -60.296875 59.910156 -57.117188 C 63.089844 -53.9375 65.570312 -50.273438 67.355469 -46.125 C 69.136719 -41.976562 70.03125 -37.496094 70.03125 -32.6875 C 70.03125 -27.957031 69.136719 -23.5 67.355469 -19.3125 C 65.570312 -15.121094 63.089844 -11.4375 59.910156 -8.257812 C 56.730469 -5.078125 53.066406 -2.597656 48.917969 -0.8125 C 44.765625 0.96875 40.289062 1.859375 35.480469 1.859375 Z M 35.480469 -38.621094 C 33.851562 -38.621094 32.457031 -38.039062 31.292969 -36.875 C 30.128906 -35.714844 29.546875 -34.316406 29.546875 -32.6875 C 29.546875 -31.058594 30.128906 -29.664062 31.292969 -28.5 C 32.457031 -27.335938 33.851562 -26.753906 35.480469 -26.753906 C 37.109375 -26.753906 38.503906 -27.335938 39.667969 -28.5 C 40.832031 -29.664062 41.414062 -31.058594 41.414062 -32.6875 C 41.414062 -34.316406 40.832031 -35.714844 39.667969 -36.875 C 38.503906 -38.039062 37.109375 -38.621094 35.480469 -38.621094 Z M 35.480469 -38.621094 "/></g></g></g><g fill="#fff9f9" fill-opacity="1"><g transform="translate(167.620765, 229.429232)"><g><path d="M 29.664062 4.363281 L -3.316406 4.363281 L -3.316406 -33.503906 C -3.316406 -39.859375 -2.238281 -45.453125 -0.0898438 -50.285156 C 2.070312 -55.128906 4.996094 -59.179688 8.695312 -62.429688 C 12.335938 -65.632812 16.425781 -68.027344 20.953125 -69.613281 C 25.414062 -71.171875 29.984375 -71.949219 34.667969 -71.949219 C 39.34375 -71.949219 43.929688 -71.171875 48.425781 -69.617188 C 53.003906 -68.03125 57.101562 -65.628906 60.714844 -62.410156 C 64.363281 -59.164062 67.265625 -55.121094 69.421875 -50.285156 C 71.570312 -45.453125 72.648438 -39.859375 72.648438 -33.503906 L 72.648438 4.363281 L 35.304688 4.363281 L 35.304688 -33.503906 C 35.304688 -33.96875 35.246094 -34.261719 35.132812 -34.371094 C 34.96875 -34.527344 34.8125 -34.609375 34.667969 -34.609375 C 34.566406 -34.609375 34.410156 -34.511719 34.199219 -34.316406 C 34.082031 -34.207031 34.027344 -33.9375 34.027344 -33.503906 L 34.027344 4.363281 Z M 29.664062 -4.363281 L 29.664062 0 L 25.300781 0 L 25.300781 -33.503906 C 25.300781 -36.480469 26.289062 -38.882812 28.269531 -40.71875 C 30.152344 -42.460938 32.285156 -43.332031 34.667969 -43.332031 C 37.15625 -43.332031 39.328125 -42.441406 41.179688 -40.660156 C 43.082031 -38.832031 44.03125 -36.445312 44.03125 -33.503906 L 44.03125 0 L 39.667969 0 L 39.667969 -4.363281 L 68.285156 -4.363281 L 68.285156 0 L 63.921875 0 L 63.921875 -33.503906 C 63.921875 -38.625 63.097656 -43.035156 61.449219 -46.734375 C 59.804688 -50.425781 57.625 -53.480469 54.914062 -55.894531 C 52.167969 -58.339844 49.054688 -60.164062 45.570312 -61.371094 C 42 -62.605469 38.363281 -63.222656 34.667969 -63.222656 C 30.972656 -63.222656 27.359375 -62.609375 23.832031 -61.375 C 20.375 -60.167969 17.25 -58.332031 14.457031 -55.878906 C 11.714844 -53.464844 9.523438 -50.417969 7.882812 -46.734375 C 6.234375 -43.035156 5.410156 -38.625 5.410156 -33.503906 L 5.410156 0 L 1.046875 0 L 1.046875 -4.363281 Z M 29.664062 -4.363281 "/></g></g></g><g fill="#4b5ae4" fill-opacity="1"><g transform="translate(167.620765, 229.429232)"><g><path d="M 29.664062 0 L 1.046875 0 L 1.046875 -33.503906 C 1.046875 -39.242188 1.996094 -44.242188 3.898438 -48.507812 C 5.796875 -52.773438 8.355469 -56.324219 11.574219 -59.152344 C 14.792969 -61.984375 18.398438 -64.097656 22.394531 -65.492188 C 26.386719 -66.890625 30.476562 -67.585938 34.667969 -67.585938 C 38.855469 -67.585938 42.964844 -66.890625 46.996094 -65.492188 C 51.03125 -64.097656 54.636719 -61.984375 57.816406 -59.152344 C 60.996094 -56.324219 63.535156 -52.773438 65.433594 -48.507812 C 67.335938 -44.242188 68.285156 -39.242188 68.285156 -33.503906 L 68.285156 0 L 39.667969 0 L 39.667969 -33.503906 C 39.667969 -35.207031 39.164062 -36.546875 38.15625 -37.515625 C 37.148438 -38.484375 35.984375 -38.96875 34.667969 -38.96875 C 33.425781 -38.96875 32.28125 -38.484375 31.234375 -37.515625 C 30.1875 -36.546875 29.664062 -35.207031 29.664062 -33.503906 Z M 29.664062 0 "/></g></g></g><g fill="#ffffff" fill-opacity="1"><g transform="translate(222.709807, 229.429232)"><g><path d="M 36.066406 -33.261719 C 36.558594 -33.53125 36.835938 -33.816406 36.890625 -34.125 C 36.964844 -34.515625 36.875 -34.871094 36.621094 -35.199219 C 36.589844 -35.242188 36.515625 -35.285156 36.398438 -35.332031 C 36.050781 -35.46875 35.550781 -35.539062 34.898438 -35.539062 L 34.816406 -35.539062 L 34.730469 -35.542969 C 34.105469 -35.566406 33.726562 -35.5 33.59375 -35.347656 C 33.234375 -34.9375 33.050781 -34.460938 33.035156 -33.917969 C 33.023438 -33.371094 33.179688 -32.886719 33.507812 -32.464844 C 33.515625 -32.457031 33.539062 -32.445312 33.585938 -32.429688 C 33.824219 -32.332031 34.1875 -32.28125 34.667969 -32.28125 L 71.949219 -32.28125 L 71.949219 4.363281 L 34.667969 4.363281 C 29.410156 4.363281 24.488281 3.371094 19.90625 1.386719 C 15.363281 -0.578125 11.34375 -3.308594 7.851562 -6.804688 C 4.355469 -10.296875 1.625 -14.316406 -0.339844 -18.859375 C -2.324219 -23.441406 -3.316406 -28.363281 -3.316406 -33.617188 C -3.316406 -40.488281 -1.761719 -46.769531 1.347656 -52.460938 C 4.476562 -58.191406 8.917969 -62.792969 14.671875 -66.261719 C 20.429688 -69.734375 27.195312 -71.515625 34.964844 -71.601562 C 38.917969 -71.601562 42.867188 -71.226562 46.820312 -70.476562 C 51.007812 -69.683594 54.953125 -68.1875 58.652344 -65.984375 C 62.566406 -63.65625 65.800781 -60.257812 68.351562 -55.792969 C 69.523438 -53.742188 70.367188 -51.351562 70.882812 -48.625 C 71.375 -46.035156 71.554688 -43.386719 71.421875 -40.675781 C 71.28125 -37.804688 70.6875 -35.109375 69.640625 -32.585938 C 68.441406 -29.699219 66.574219 -27.429688 64.039062 -25.777344 L 62.953125 -25.070312 L 38.15625 -25.070312 Z M 40.246094 -25.601562 L 38.15625 -29.429688 L 38.15625 -33.792969 L 61.65625 -33.792969 L 61.65625 -29.429688 L 59.269531 -33.085938 C 60.300781 -33.757812 61.070312 -34.707031 61.582031 -35.929688 C 62.238281 -37.519531 62.613281 -39.242188 62.707031 -41.105469 C 62.804688 -43.125 62.675781 -45.089844 62.3125 -47 C 61.976562 -48.769531 61.464844 -50.257812 60.773438 -51.464844 C 58.984375 -54.597656 56.789062 -56.941406 54.1875 -58.488281 C 51.371094 -60.164062 48.375 -61.300781 45.195312 -61.90625 C 41.78125 -62.550781 38.402344 -62.875 35.0625 -62.875 C 28.875 -62.808594 23.582031 -61.445312 19.179688 -58.789062 C 14.773438 -56.132812 11.382812 -52.628906 9.003906 -48.28125 C 6.609375 -43.890625 5.410156 -39.003906 5.410156 -33.617188 C 5.410156 -29.566406 6.164062 -25.800781 7.667969 -22.324219 C 9.191406 -18.800781 11.308594 -15.683594 14.019531 -12.972656 C 16.730469 -10.261719 19.847656 -8.144531 23.371094 -6.621094 C 26.851562 -5.117188 30.613281 -4.363281 34.667969 -4.363281 L 67.585938 -4.363281 L 67.585938 0 L 63.222656 0 L 63.222656 -27.917969 L 67.585938 -27.917969 L 67.585938 -23.554688 L 34.667969 -23.554688 C 31.152344 -23.554688 28.476562 -24.734375 26.632812 -27.09375 C 25.023438 -29.15625 24.25 -31.5 24.3125 -34.132812 C 24.378906 -36.769531 25.277344 -39.085938 27.015625 -41.078125 C 28.976562 -43.332031 31.660156 -44.390625 35.066406 -44.261719 L 34.898438 -39.902344 L 34.898438 -44.261719 C 38.734375 -44.261719 41.609375 -43.019531 43.53125 -40.53125 C 45.371094 -38.144531 46.015625 -35.476562 45.46875 -32.53125 C 44.90625 -29.503906 43.164062 -27.195312 40.246094 -25.601562 Z M 40.246094 -25.601562 "/></g></g></g><g fill="#4b5ae4" fill-opacity="1"><g transform="translate(222.709807, 229.429232)"><g><path d="M 38.15625 -29.429688 C 39.863281 -30.363281 40.871094 -31.660156 41.179688 -33.328125 C 41.492188 -34.996094 41.121094 -36.507812 40.074219 -37.863281 C 39.027344 -39.222656 37.304688 -39.902344 34.898438 -39.902344 C 32.882812 -39.976562 31.351562 -39.417969 30.304688 -38.214844 C 29.257812 -37.011719 28.714844 -35.617188 28.675781 -34.027344 C 28.636719 -32.4375 29.101562 -31.019531 30.070312 -29.78125 C 31.039062 -28.539062 32.570312 -27.917969 34.667969 -27.917969 L 67.585938 -27.917969 L 67.585938 0 L 34.667969 0 C 30.011719 0 25.671875 -0.871094 21.636719 -2.617188 C 17.605469 -4.363281 14.035156 -6.785156 10.933594 -9.886719 C 7.832031 -12.988281 5.410156 -16.558594 3.664062 -20.589844 C 1.917969 -24.621094 1.046875 -28.964844 1.046875 -33.617188 C 1.046875 -39.746094 2.421875 -45.328125 5.175781 -50.371094 C 7.929688 -55.410156 11.847656 -59.464844 16.925781 -62.527344 C 22.003906 -65.589844 28.035156 -67.160156 35.015625 -67.238281 C 38.660156 -67.238281 42.324219 -66.890625 46.007812 -66.191406 C 49.691406 -65.492188 53.164062 -64.175781 56.417969 -62.234375 C 59.675781 -60.296875 62.390625 -57.429688 64.5625 -53.628906 C 65.492188 -52 66.171875 -50.058594 66.597656 -47.8125 C 67.023438 -45.5625 67.179688 -43.253906 67.0625 -40.890625 C 66.949219 -38.523438 66.460938 -36.3125 65.609375 -34.257812 C 64.757812 -32.203125 63.4375 -30.59375 61.65625 -29.429688 Z M 38.15625 -29.429688 "/></g></g></g><g fill="#ffffff" fill-opacity="1"><g transform="translate(281.597298, 229.429232)"><g><path d="M 51.300781 20.53125 L 16.066406 20.53125 L 24.785156 -1.816406 L 28.847656 -0.234375 L 28.847656 4.128906 L 25.140625 4.128906 L -5.996094 -69.625 L 34.21875 -69.625 L 50.277344 -26.054688 L 46.183594 -24.546875 L 46.183594 -28.90625 L 47.925781 -28.90625 L 47.925781 -24.546875 L 43.832031 -23.039062 L 39.226562 -35.539062 L 50.855469 -69.625 L 91.191406 -69.625 L 54.226562 20.53125 Z M 51.300781 11.808594 L 51.300781 16.167969 L 47.265625 14.515625 L 80.652344 -66.914062 L 84.6875 -65.261719 L 84.6875 -60.898438 L 53.976562 -60.898438 L 53.976562 -65.261719 L 58.105469 -63.851562 L 47.984375 -34.1875 L 43.855469 -35.597656 L 47.949219 -37.105469 L 54.183594 -20.183594 L 43.140625 -20.183594 L 27.082031 -63.75 L 31.175781 -65.261719 L 31.175781 -60.898438 L 0.582031 -60.898438 L 0.582031 -65.261719 L 4.601562 -66.957031 L 32.054688 -1.929688 L 28.035156 -0.234375 L 28.035156 -4.59375 L 35.234375 -4.59375 L 26.515625 17.753906 L 22.453125 16.167969 L 22.453125 11.808594 Z M 51.300781 11.808594 "/></g></g></g><g fill="#4b5ae4" fill-opacity="1"><g transform="translate(281.597298, 229.429232)"><g><path d="M 51.300781 16.167969 L 22.453125 16.167969 L 28.847656 -0.234375 L 28.035156 -0.234375 L 0.582031 -65.261719 L 31.175781 -65.261719 L 46.183594 -24.546875 L 47.925781 -24.546875 L 43.855469 -35.597656 L 53.976562 -65.261719 L 84.6875 -65.261719 Z M 51.300781 16.167969 "/></g></g></g><g fill="#5271ff" fill-opacity="1"><g transform="translate(282.763755, 150.30217)"><g><path d="M 4.710938 0 L 1.511719 0 L 1.511719 -16.949219 L 6.796875 -16.949219 L 10.308594 -3.867188 L 13.796875 -16.949219 L 19.128906 -16.949219 L 19.128906 0 L 15.929688 0 L 15.929688 -14.550781 L 11.886719 0 L 8.753906 0 L 4.710938 -14.460938 Z M 4.710938 0 "/></g></g></g><g fill="#5271ff" fill-opacity="1"><g transform="translate(308.953168, 150.30217)"><g><path d="M 3.511719 0 L 0.15625 0 L 6.132812 -16.949219 L 9.640625 -16.949219 L 15.617188 0 L 12.261719 0 L 11.109375 -3.488281 L 4.644531 -3.488281 Z M 7.886719 -13.460938 L 5.554688 -6.285156 L 10.21875 -6.285156 Z M 7.886719 -13.460938 "/></g></g></g><g fill="#5271ff" fill-opacity="1"><g transform="translate(328.323445, 150.30217)"><g><path d="M 8.597656 0 L 5.398438 0 L 5.398438 -14.085938 L 0.222656 -14.085938 L 0.222656 -16.949219 L 13.75 -16.949219 L 13.75 -14.085938 L 8.597656 -14.085938 Z M 8.597656 0 "/></g></g></g><g fill="#5271ff" fill-opacity="1"><g transform="translate(347.871734, 150.30217)"><g><path d="M 12.816406 0 L 1.511719 0 L 1.511719 -16.949219 L 12.816406 -16.949219 L 12.816406 -14.085938 L 4.710938 -14.085938 L 4.710938 -9.90625 L 11.972656 -9.90625 L 11.972656 -7.0625 L 4.710938 -7.0625 L 4.710938 -2.867188 L 12.816406 -2.867188 Z M 12.816406 0 "/></g></g></g></svg>